HIERARCHY
ROOT root
{
	OFFSET	0	13.1	24.9
	CHANNELS 6  Xposition Yposition Zposition Xrotation Yrotation Zrotation
	JOINT spine_1
	{
		OFFSET	0	9.99999	0
		CHANNELS 3  Xrotation Yrotation Zrotation
		JOINT spine_2
		{
			OFFSET	0	112	-10
			CHANNELS 3  Xrotation Yrotation Zrotation
			JOINT spine_3
			{
				OFFSET	0	206.5	19.3
				CHANNELS 3  Xrotation Yrotation Zrotation
				JOINT spine_4
				{
					OFFSET	0	110.4	14.6
					CHANNELS 3  Xrotation Yrotation Zrotation
					JOINT neck_1
					{
						OFFSET	0	71.8	-50.3
						CHANNELS 3  Xrotation Yrotation Zrotation
						JOINT neck_2
						{
							OFFSET	0	86.2	-25.8
							CHANNELS 3  Xrotation Yrotation Zrotation
							JOINT head_ee
							{
								OFFSET	0	179.8	-8.7
								CHANNELS 3  Xrotation Yrotation Zrotation
								End Site
								{
									OFFSET	1	0	0
								}
							}
						}
					}
					JOINT left_clavicle
					{
						OFFSET	-43.2	22.4	-70.8
						CHANNELS 3  Xrotation Yrotation Zrotation
						JOINT left_shoulder
						{
							OFFSET	-93.9	-5.79999	48.7
							CHANNELS 3  Xrotation Yrotation Zrotation
							JOINT left_elbow
							{
								OFFSET	-291.4	-30.8	15.2
								CHANNELS 3  Xrotation Yrotation Zrotation
								JOINT left_lowarm_twist
								{
									OFFSET	-110.7	-3.89999	13.6
									CHANNELS 3  Xrotation Yrotation Zrotation
									JOINT left_hand
									{
										OFFSET	-110.7	-3.89999	13.6
										CHANNELS 3  Xrotation Yrotation Zrotation
										JOINT left_ee
										{
											OFFSET	-80.8	-5.10001	12.1
											CHANNELS 3  Xrotation Yrotation Zrotation
											End Site
											{
												OFFSET	1	0	0
											}
										}
									}
								}
							}
						}
					}
					JOINT right_clavicle
					{
						OFFSET	43.2	22.4	-70.8
						CHANNELS 3  Xrotation Yrotation Zrotation
						JOINT right_shoulder
						{
							OFFSET	93.9	-5.79999	48.7
							CHANNELS 3  Xrotation Yrotation Zrotation
							JOINT right_elbow
							{
								OFFSET	291.4	-30.8	15.2
								CHANNELS 3  Xrotation Yrotation Zrotation
								JOINT right_lowarm_twist
								{
									OFFSET	110.7	-3.89999	13.6
									CHANNELS 3  Xrotation Yrotation Zrotation
									JOINT right_hand
									{
										OFFSET	110.7	-3.89999	13.6
										CHANNELS 3  Xrotation Yrotation Zrotation
										JOINT right_ee
										{
											OFFSET	80.8	-5.10001	12.1
											CHANNELS 3  Xrotation Yrotation Zrotation
											End Site
											{
												OFFSET	1	0	0
											}
										}
									}
								}
							}
						}
					}
				}
			}
		}
	}
	JOINT left_hip
	{
		OFFSET	-82.8	-127.5	0.300001
		CHANNELS 3  Xrotation Yrotation Zrotation
		JOINT left_knee
		{
			OFFSET	-28.2	-396.7	2.2
			CHANNELS 3  Xrotation Yrotation Zrotation
			JOINT left_ankle
			{
				OFFSET	-11.7	-411.3	35.4
				CHANNELS 3  Xrotation Yrotation Zrotation
				JOINT left_toes
				{
					OFFSET	0	-60	-88.6
					CHANNELS 3  Xrotation Yrotation Zrotation
					JOINT left_foot_ee
					{
						OFFSET	-22.5	-16.5	-42.2
						CHANNELS 3  Xrotation Yrotation Zrotation
						End Site
						{
							OFFSET	1	0	0
						}
					}
				}
			}
		}
	}
	JOINT right_hip
	{
		OFFSET	82.8	-127.5	0.300001
		CHANNELS 3  Xrotation Yrotation Zrotation
		JOINT right_knee
		{
			OFFSET	28.2	-396.7	2.2
			CHANNELS 3  Xrotation Yrotation Zrotation
			JOINT right_ankle
			{
				OFFSET	11.7	-411.3	35.4
				CHANNELS 3  Xrotation Yrotation Zrotation
				JOINT right_toes
				{
					OFFSET	0	-60	-88.6
					CHANNELS 3  Xrotation Yrotation Zrotation
					JOINT right_foot_ee
					{
						OFFSET	22.5	-16.5	-42.2
						CHANNELS 3  Xrotation Yrotation Zrotation
						End Site
						{
							OFFSET	1	0	0
						}
					}
				}
			}
		}
	}
}
MOTION
Frames: 15
Frame Time: 0.02
3763.73 709.795 -117.858 -155.931 -72.2961 -152.008 5.26111 -0.631292 -3.15891 5.26656 -0.429108 -3.19264 5.28531 -0.0456814 -3.22099 5.27126 -0.553544 -3.17345 -7.5939 3.34592 8.94721 -7.36912 -0.169813 9.60487 -0.0 0.0 -0.0 11.1026 -4.11343 22.1665 -10.7415 -33.0239 54.2249 1.1141 -28.8931 0.287026 45.2935 -0.65284 -5.60056 -0.274156 -11.9583 -6.94629 -0.0 0.0 -0.0 2.49987 -16.1012 -5.82791 -33.3868 29.4325 -59.1265 0.474875 13.2377 -0.0551037 57.1741 1.5289 6.8412 0.37269 13.2756 3.13569 0.0 0.0 0.0 17.7402 -6.40624 -1.39698 -0.407394 0.0165606 0.0603254 9.78356 -19.4401 -1.56642 -2.13599 0.0 0.0 -0.0 0.0 -0.0 29.2918 -14.8526 8.23051 -41.5915 0.571113 -6.21962 17.5417 5.35701 2.48186 21.5183 -0.0 -0.0 0.0 0.0 0.0 
3770.99 708.248 -109.645 -159.067 -69.9213 -154.437 5.2862 -0.509398 -3.34001 5.29235 -0.295955 -3.36562 5.30392 0.106275 -3.37692 5.28827 -0.428075 -3.35139 -7.67649 3.19402 9.933 -7.39749 -1.14795 10.5547 -0.0 0.0 -0.0 10.8069 -2.47438 21.464 -9.88501 -32.3577 53.7487 1.22998 -31.3526 0.345196 46.2414 -0.713058 -5.70586 -0.280844 -11.0598 -6.60826 -0.0 0.0 -0.0 2.67891 -13.155 -5.97111 -34.2049 29.6849 -59.2448 0.549373 15.2241 -0.0734203 59.1591 1.69963 7.02981 0.402162 11.8781 2.33773 0.0 0.0 0.0 17.2742 -2.86408 -3.43564 -1.75725 0.068355 0.261003 12.7953 -20.1373 -2.03546 -1.57112 0.0 0.0 -0.0 0.0 -0.0 29.8541 -19.6975 8.33158 -36.8531 0.278797 -5.55269 18.0015 6.83436 2.55705 22.2195 -0.0 -0.0 0.0 0.0 0.0 
3779.07 709.556 -102.997 -158.539 -69.9574 -153.359 5.39311 -0.495581 -3.31904 5.39919 -0.283499 -3.34381 5.40981 0.109863 -3.35399 5.39436 -0.420917 -3.32932 -7.60921 2.41418 9.35805 -7.35917 -2.19805 9.82469 -0.0 0.0 -0.0 10.9053 -2.54407 21.6773 -10.4537 -32.7805 52.8162 1.29501 -32.6791 0.379673 45.0347 -0.636701 -5.57163 -0.0547964 -11.8587 -5.41679 -0.0 0.0 -0.0 2.72957 -13.2529 -6.05974 -34.5761 29.4496 -59.2336 0.569031 15.7423 -0.0786683 58.4778 1.6403 6.96574 0.473787 12.0872 1.94434 0.0 0.0 0.0 17.9234 -2.42547 -4.66516 -4.39195 0.15575 0.655873 13.0773 -20.549 -2.08564 -1.51832 0.0 0.0 -0.0 0.0 -0.0 29.3394 -24.6388 7.7944 -28.1624 -0.110051 -4.27716 15.7573 7.73307 2.27085 21.7953 -0.0 -0.0 0.0 0.0 0.0 
3784.9 707.988 -95.1182 -156.749 -70.242 -151.413 5.65432 -0.528913 -3.18264 5.65989 -0.325429 -3.20981 5.67226 0.0376621 -3.22603 5.65805 -0.472037 -3.19156 -7.59736 1.76696 8.66441 -7.38133 -2.90592 9.00001 -0.0 0.0 -0.0 10.762 -2.38773 21.3646 -9.43885 -32.1245 53.7677 1.31602 -33.0995 0.391083 44.307 -0.592036 -5.48993 0.240079 -11.7026 -3.35651 -0.0 0.0 -0.0 2.5043 -13.7123 -5.71225 -34.6681 30.1417 -59.8415 0.615597 16.9591 -0.0917781 58.3928 1.63295 6.9577 0.488924 13.5283 2.46134 0.0 0.0 0.0 18.2356 -2.87342 -5.43594 -5.82615 0.195658 0.872352 13.4887 -21.176 -2.16 -1.26192 0.0 0.0 -0.0 0.0 -0.0 29.3099 -29.0123 6.76026 -19.4271 -0.302016 -2.95168 12.6503 8.81344 1.85755 21.6401 -0.0 -0.0 0.0 0.0 0.0 
3796.04 709.981 -89.7635 -157.694 -69.6345 -152.263 5.78386 -0.525134 -3.26861 5.78974 -0.316196 -3.29536 5.80153 0.0490051 -3.31012 5.78656 -0.474096 -3.27639 -7.3086 1.7623 9.04426 -7.07225 -3.23183 9.39462 -0.0 0.0 -0.0 10.7496 -0.618913 21.249 -10.4598 -33.1927 53.2409 1.33765 -33.528 0.402961 44.4914 -0.603252 -5.51068 0.244578 -10.926 -2.99396 -0.0 0.0 -0.0 2.56563 -13.725 -5.81352 -35.6611 30.6252 -58.7702 0.607833 16.7573 -0.0895263 58.2154 1.61764 6.94088 0.728873 14.9352 1.45548 0.0 0.0 0.0 17.3743 -3.1857 -5.90464 -6.27429 0.207015 0.940187 13.1681 -19.8578 -2.08594 -1.11812 0.0 0.0 -0.0 0.0 -0.0 27.665 -29.2221 5.56957 -17.3639 -0.317705 -2.63554 12.2041 9.88546 1.80565 21.302 -0.0 -0.0 0.0 0.0 0.0 
3799.0 709.085 -88.0665 -157.998 -69.3338 -152.451 5.64758 -0.456402 -3.3359 5.65374 -0.243328 -3.35815 5.66158 0.136709 -3.36417 5.64601 -0.396011 -3.3436 -6.63961 1.29059 8.31234 -6.43684 -3.67072 8.60483 -0.0 0.0 -0.0 10.5641 -0.142217 20.8334 -10.7744 -34.5183 53.7783 1.38346 -34.422 0.428562 44.0952 -0.579227 -5.46604 0.476648 -11.6556 -1.73989 -0.0 0.0 -0.0 2.43947 -13.1698 -5.57583 -34.0628 29.6147 -59.857 0.599769 16.5472 -0.0872156 57.8815 1.58899 6.90909 0.695805 14.7965 1.61738 0.0 0.0 0.0 17.639 -2.35152 -6.26981 -7.14222 0.227499 1.0718 12.365 -21.4321 -1.99504 -0.694643 0.0 0.0 -0.0 0.0 -0.0 27.271 -29.6896 5.23306 -15.8565 -0.321966 -2.40429 12.202 9.74869 1.804 21.0619 -0.0 -0.0 0.0 0.0 0.0 
3800.67 710.156 -83.3445 -156.002 -69.9393 -150.595 5.7088 -0.617346 -3.15482 5.71424 -0.41545 -3.18767 5.73151 -0.0577484 -3.21408 5.71754 -0.56437 -3.16472 -6.27288 1.33388 7.13284 -6.12393 -2.77061 7.44195 -0.0 0.0 -0.0 11.029 0.210059 21.7848 -11.6765 -32.9008 52.0792 1.43768 -35.4558 0.459615 44.4812 -0.602629 -5.50953 0.550491 -10.8075 -0.878222 -0.0 0.0 -0.0 2.6425 -14.1156 -5.95902 -33.3833 29.1008 -59.6628 0.576619 15.9416 -0.0807396 57.92 1.59229 6.91277 0.849492 16.5924 1.36768 0.0 0.0 0.0 17.4938 -4.92695 -6.2393 -7.15271 0.227734 1.0734 14.3311 -21.6879 -2.29728 -0.372877 0.0 0.0 -0.0 0.0 -0.0 27.1409 -30.921 5.07453 -13.0428 -0.313643 -1.97272 10.6894 9.0706 1.58415 20.1639 -0.0 -0.0 0.0 0.0 0.0 
3805.08 708.862 -80.2295 -155.537 -70.8145 -150.034 5.62745 -0.681467 -3.14736 5.63284 -0.479916 -3.18429 5.65382 -0.117924 -3.21806 5.63992 -0.624421 -3.15916 -5.36316 1.28469 6.25982 -5.24775 -2.31325 6.58962 -0.0 0.0 -0.0 11.2066 0.390272 22.1458 -12.5165 -33.2331 51.6722 1.4992 -36.5974 0.495799 44.8753 -0.626831 -5.55379 0.592785 -9.60196 -0.0768657 -0.0 0.0 -0.0 2.50531 -14.4502 -5.75285 -32.3666 28.4412 -59.6651 0.590896 16.3156 -0.0847059 57.7432 1.57718 6.89588 1.04163 18.7917 1.05156 0.0 0.0 0.0 17.4194 -5.62668 -6.35814 -8.10999 0.247984 1.2189 13.3102 -22.149 -2.15355 -0.0881123 0.0 0.0 -0.0 0.0 -0.0 26.5542 -32.01 5.39864 -13.1397 -0.314282 -1.98757 11.3536 9.31163 1.68034 20.0552 -0.0 -0.0 0.0 0.0 0.0 
3815.97 707.652 -73.3973 -158.311 -70.1395 -152.661 5.76492 -0.460195 -3.24537 5.77074 -0.252864 -3.26805 5.7789 0.110337 -3.27595 5.76415 -0.408144 -3.25232 -7.07185 2.16576 7.72389 -6.90154 -1.55962 8.16212 -0.0 0.0 -0.0 10.4228 0.896663 20.4787 -13.2669 -34.8558 53.2071 1.54967 -37.5095 0.526214 45.9398 -0.693707 -5.67246 0.313417 -9.21596 -1.79836 -0.0 0.0 -0.0 1.90352 -14.7777 -4.79973 -33.2671 30.1214 -59.4796 0.657741 18.047 -0.104454 57.6916 1.57278 6.89094 1.09885 18.7723 0.6628 0.0 0.0 0.0 17.1457 -2.36536 -7.22996 -10.4719 0.287523 1.57915 14.8773 -21.79 -2.38103 0.477049 -0.0 -0.0 -0.0 0.0 -0.0 26.9634 -32.3149 5.98698 -16.1904 -0.321547 -2.45552 11.9994 10.4681 1.7827 19.7614 -0.0 -0.0 0.0 0.0 0.0 
3818.28 709.087 -65.6547 -156.271 -71.1475 -150.644 5.84663 -0.620289 -3.14452 5.85203 -0.419042 -3.17757 5.86925 -0.0701607 -3.20429 5.85538 -0.575083 -3.15309 -7.17549 2.28553 7.33932 -7.02255 -1.04449 7.79707 -0.0 0.0 -0.0 10.5835 1.81225 20.7497 -14.205 -34.3851 52.6274 1.60927 -38.5585 0.562937 45.9153 -0.692146 -5.66975 0.424354 -5.61097 0.483217 -0.0 0.0 -0.0 2.07711 -15.8453 -5.14504 -31.8651 28.7573 -59.8442 0.63616 17.4916 -0.0978675 57.1117 1.52364 6.83518 1.43099 22.9075 0.326602 0.0 0.0 0.0 17.0697 -5.38724 -7.20105 -11.2356 0.297126 1.69593 14.7896 -21.8454 -2.36928 0.870942 -0.0 -0.0 -0.0 0.0 -0.0 25.1752 -32.2921 4.9015 -13.3888 -0.315809 -2.02575 13.2255 8.87273 1.93796 19.439 -0.0 -0.0 0.0 0.0 0.0 
3828.84 709.377 -55.9877 -158.711 -71.0896 -152.848 5.83471 -0.604568 -3.23823 5.84046 -0.397399 -3.2701 5.85677 -0.037804 -3.29391 5.84206 -0.557264 -3.2467 -8.0709 2.55986 8.03393 -7.88828 -0.90793 8.51811 -0.0 0.0 -0.0 10.1352 2.37143 19.7959 -15.9201 -35.7194 53.3759 1.56943 -37.8605 0.538289 46.6818 -0.741633 -5.75446 0.197004 -3.30133 -0.0719396 -0.0 0.0 -0.0 1.51226 -16.4034 -4.29281 -31.4791 31.2707 -59.5958 0.675102 18.4913 -0.109896 56.1865 1.44642 6.7452 1.78373 24.8325 -1.08143 0.0 0.0 0.0 16.659 -2.01244 -8.382 -13.1414 0.314293 1.98783 16.1575 -21.0825 -2.55246 1.77153 -0.0 -0.0 -0.0 0.0 -0.0 24.1708 -33.9434 4.94192 -14.5468 -0.320729 -2.20337 14.5161 9.04275 2.1172 18.7027 -0.0 -0.0 0.0 0.0 0.0 
3836.96 709.379 -48.8664 -160.222 -70.435 -154.711 5.8571 -0.337139 -3.15363 5.86263 -0.135885 -3.16867 5.86411 0.211057 -3.16456 5.85026 -0.291119 -3.15821 -8.19011 2.57676 8.04274 -8.00717 -0.865255 8.5269 -0.0 0.0 -0.0 9.63467 3.53777 18.7136 -15.9629 -35.4398 54.4735 1.64219 -39.125 0.583579 47.5276 -0.79755 -5.84715 0.272448 -3.70153 0.266576 -0.0 0.0 -0.0 1.15179 -16.9718 -3.77567 -29.6214 31.692 -60.6023 0.713645 19.4695 -0.122433 54.9733 1.3474 6.62537 1.87837 25.9791 -1.15312 0.0 0.0 0.0 16.0588 -1.89833 -8.17055 -13.7101 0.317534 2.07503 15.6784 -21.451 -2.49135 1.42279 -0.0 -0.0 -0.0 0.0 -0.0 23.1414 -33.7042 4.99732 -13.4176 -0.315975 -2.03018 14.6364 9.75875 2.14177 18.843 -0.0 -0.0 0.0 0.0 0.0 
3840.83 708.894 -43.9351 -160.492 -70.6101 -154.98 5.87995 -0.328903 -3.11817 5.88535 -0.129918 -3.13276 5.88652 0.211844 -3.1283 5.87298 -0.284624 -3.12252 -8.13218 2.41388 7.62939 -7.96743 -0.884427 8.08354 -0.0 0.0 -0.0 9.3575 3.57163 18.1608 -16.711 -35.3135 55.4936 1.61218 -38.6088 0.564749 47.8818 -0.821379 -5.88574 0.288467 -2.83804 0.738143 -0.0 0.0 -0.0 0.944592 -17.7885 -3.52649 -27.9527 31.9185 -61.4373 0.686739 18.7879 -0.113615 54.4752 1.30749 6.57559 1.77824 26.3075 -0.354275 0.0 0.0 0.0 15.7977 -4.34553 -7.87568 -14.0126 0.318905 2.12141 14.7055 -20.9297 -2.33607 1.50223 -0.0 -0.0 -0.0 0.0 -0.0 22.1607 -33.986 4.56188 -13.5713 -0.316823 -2.05374 15.1356 9.19355 2.20327 18.4546 -0.0 -0.0 0.0 0.0 0.0 
3847.55 709.021 -37.4948 -159.989 -70.3767 -154.766 5.97269 -0.329742 -3.05784 5.97788 -0.134589 -3.07261 5.97926 0.195666 -3.06933 5.96624 -0.2913 -3.06174 -7.95592 2.14661 7.20666 -7.80851 -1.10635 7.61193 -0.0 0.0 -0.0 9.01642 5.0571 17.4021 -17.1046 -34.5987 56.6919 1.62923 -38.903 0.575422 48.2941 -0.849409 -5.93045 0.240517 -2.30501 0.640334 -0.0 0.0 -0.0 0.309788 -18.4567 -2.6263 -26.0883 31.8415 -62.8115 0.687772 18.8141 -0.113948 53.1983 1.20717 6.44638 1.91691 27.5935 -0.633605 0.0 0.0 0.0 15.7096 -3.88516 -7.83083 -13.8988 0.318419 2.10397 13.5441 -21.6025 -2.17727 1.20155 -0.0 -0.0 -0.0 0.0 -0.0 21.7888 -34.8142 4.55053 -13.6624 -0.317296 -2.06771 15.493 9.039 2.2499 18.022 -0.0 -0.0 0.0 0.0 0.0 
3854.61 707.174 -30.8904 -161.829 -69.4575 -156.542 5.98998 -0.370001 -3.09666 5.9953 -0.1723 -3.11391 5.99865 0.161496 -3.11449 5.98526 -0.332164 -3.10095 -7.93952 2.33022 6.9156 -7.80442 -0.558743 7.36209 -0.0 0.0 -0.0 7.98066 4.98092 15.4072 -18.0895 -34.186 58.354 1.73349 -40.6498 0.642135 50.9914 -1.04069 -6.21797 0.191548 -3.13859 -0.0399067 -0.0 0.0 -0.0 -0.563954 -18.09 -1.26014 -25.7021 35.6846 -63.5895 0.706452 19.2878 -0.120046 51.6924 1.09261 6.2912 1.87463 26.4975 -0.883713 0.0 0.0 0.0 15.9973 -0.479986 -8.64981 -15.9924 0.321831 2.42515 13.7539 -21.4043 -2.20462 2.61451 -0.0 -0.0 -0.0 0.0 -0.0 21.2697 -36.498 4.81276 -13.7148 -0.317557 -2.07575 15.762 11.9278 2.32376 17.9661 -0.0 -0.0 0.0 0.0 0.0 
